<svg width="100" height="100" viewBox="0 0 100 100" fill="none" xmlns="http://www.w3.org/2000/svg">
<g clip-path="url(#clip0_8_4)">
<rect x="0.5" y="0.5" width="99" height="99" rx="9.5" fill="black" stroke="black"/>
<path d="M71.312 64.84C71.312 68.4773 70.3733 71.6747 68.496 74.432C66.6773 77.1893 64.008 79.3307 60.488 80.856C57.0267 82.3813 52.8907 83.144 48.08 83.144C38.6933 83.144 31.2427 80.4453 25.728 75.048L31.36 68.8C35.936 73.024 41.5093 75.136 48.08 75.136C51.7173 75.136 54.7093 74.2853 57.056 72.584C59.4613 70.8827 60.664 68.4773 60.664 65.368C60.664 63.5493 60.2827 62.024 59.52 60.792C58.816 59.56 57.584 58.4747 55.824 57.536C54.064 56.5387 51.5413 55.5413 48.256 54.544C41.5093 52.5493 36.552 50.1733 33.384 47.416C30.216 44.6587 28.632 41.0213 28.632 36.504C28.632 33.2773 29.512 30.432 31.272 27.968C33.0907 25.4453 35.584 23.5093 38.752 22.16C41.92 20.752 45.4987 20.048 49.488 20.048C57.6427 20.048 64.4187 22.4827 69.816 27.352L64.448 33.424C60.2827 29.8453 55.5013 28.056 50.104 28.056C46.8187 28.056 44.1493 28.7307 42.096 30.08C40.1013 31.4293 39.104 33.3653 39.104 35.888C39.104 37.472 39.5147 38.8213 40.336 39.936C41.216 41.0507 42.6533 42.0773 44.648 43.016C46.7013 43.896 49.576 44.8933 53.272 46.008C59.1387 47.768 63.5973 50.0267 66.648 52.784C69.7573 55.5413 71.312 59.56 71.312 64.84Z" fill="#D3F6FF"/>
</g>
<defs>
<clipPath id="clip0_8_4">
<rect width="100" height="100" fill="white"/>
</clipPath>
</defs>
</svg>
